Everybody loves a TAKEAWAY...

Format                           : AVI
Format/Info                      : Audio Video Interleave
File size                        : 1.06 GiB
Duration                         : 1h 42mn
Overall bit rate                 : 1 485 Kbps

Video
ID                               : 0
Format                           : MPEG-4 Visual
Format profile                   : Advanced Simple@L5
Format settings, BVOP            : 2
Format settings, QPel            : No
Format settings, GMC             : No warppoints
Format settings, Matrix          : Default (H.263)
Muxing mode                      : Packed bitstream
Codec ID                         : XVID
Codec ID/Hint                    : XviD
Duration                         : 1h 42mn
Bit rate                         : 1 349 Kbps
Width                            : 720 pixels
Height                           : 320 pixels
Display aspect ratio             : 2.25:1
Frame rate                       : 23.067 fps
Original frame rate              : 23.976 fps
Color space                      : YUV
Chroma subsampling               : 4:2:0
Bit depth                        : 8 bits
Scan type                        : Progressive
Compression mode                 : Lossy
Bits/(Pixel*Frame)               : 0.254
Stream size                      : 989 MiB (91%)
Writing library                  : XviD 64

Audio
ID                               : 1
Format                           : MPEG Audio
Format version                   : Version 1
Format profile                   : Layer 3
Mode                             : Joint stereo
Mode extension                   : MS Stereo
Codec ID                         : 55
Codec ID/Hint                    : MP3
Duration                         : 1h 42mn
Bit rate mode                    : Constant
Bit rate                         : 128 Kbps
Channel(s)                       : 2 channels
Sampling rate                    : 44.1 KHz
Compression mode                 : Lossy
Stream size                      : 93.7 MiB (9%)
Alignment                        : Split accross interleaves
Interleave, duration             : 43 ms (1.00 video frame)
Interleave, preload duration     : 500 ms

Subtitles                        : Hardcoded English Subs When Needed.
 
http://www.imdb.com/title/tt1764651/

Mr. Church reunites the Expendables for what should be an easy 
paycheck, but when one of their men is murdered on the job, their 
quest for revenge puts them deep in enemy territory and up against 
an unexpected threat.

Notes: Video has a watermark that appears and then disappears,
the watermark will fade and then pop up in another corner of the
video. Unlike the other video this doesn't have hardcoded foreign
subtitles for all the speaking parts. The audio IS English and
appears to be LiNE audio (If not it is damn good) It will drift in and 
out of sync a little but you get used to it after a bit. Don't know
what else to say...